<svg xmlns="http://www.w3.org/2000/svg" xmlns:xlink="http://www.w3.org/1999/xlink" viewBox="0 0 750 500"><defs><style>.cls-1,.cls-5{fill:none;}.cls-2{isolation:isolate;}.cls-3{mix-blend-mode:overlay;}.cls-4{clip-path:url(#clip-path);}.cls-5{stroke:#fff;stroke-miterlimit:10;stroke-width:0.25px;}.cls-6{clip-path:url(#clip-path-2);}</style><clipPath id="clip-path"><rect class="cls-1" width="750" height="500"/></clipPath><clipPath id="clip-path-2"><rect class="cls-1" x="-704.77" width="500" height="500"/></clipPath></defs><title>Mesa de trabajo 15</title><g class="cls-2"><g id="BACKGROUND_2" data-name="BACKGROUND 2"><g class="cls-3"><g class="cls-4"><polyline class="cls-5" points="339.17 -293.99 186.44 -293.99 186.44 -22.61 480.47 -22.61 480.47 575"/><polyline class="cls-5" points="325.25 -277.56 174.28 -274.34 180 -6.09 469.69 -9.52 474.19 574.78"/><polyline class="cls-5" points="311.34 -261.12 162.13 -254.68 173.57 10.43 458.91 3.56 467.9 574.56"/><polyline class="cls-5" points="297.42 -244.69 149.98 -235.03 167.14 26.95 448.13 16.65 461.61 574.35"/><polyline class="cls-5" points="283.5 -228.25 137.83 -215.37 160.71 43.47 437.35 29.73 455.32 574.13"/><polyline class="cls-5" points="269.58 -211.82 125.68 -195.72 154.28 59.98 426.57 42.82 449.03 573.91"/><polyline class="cls-5" points="255.67 -195.38 113.52 -176.06 147.85 76.5 415.8 55.9 442.75 573.69"/><polyline class="cls-5" points="241.75 -178.95 101.37 -156.41 141.42 93.02 405.01 68.98 436.46 573.48"/><polyline class="cls-5" points="227.83 -162.51 89.22 -136.75 134.99 109.54 394.24 82.07 430.17 573.26"/><polyline class="cls-5" points="213.91 -146.07 77.07 -117.1 128.55 126.06 383.45 95.15 423.88 573.04"/><polyline class="cls-5" points="200 -129.64 64.92 -97.44 122.12 142.57 372.68 108.24 417.59 572.82"/><polyline class="cls-5" points="186.08 -113.2 52.76 -77.79 115.69 159.09 361.9 121.32 411.31 572.6"/><polyline class="cls-5" points="172.16 -96.77 40.61 -58.13 109.26 175.61 351.12 134.41 405.02 572.39"/><polyline class="cls-5" points="158.25 -80.33 28.46 -38.48 102.83 192.13 340.34 147.49 398.73 572.17"/><polyline class="cls-5" points="144.33 -63.9 16.31 -18.82 96.4 208.65 329.56 160.57 392.44 571.95"/><polyline class="cls-5" points="130.41 -47.46 4.16 0.83 89.97 225.16 318.78 173.66 386.15 571.73"/><polyline class="cls-5" points="116.49 -31.03 -8 20.48 83.53 241.68 308 186.74 379.87 571.51"/><polyline class="cls-5" points="102.58 -14.59 -20.15 40.14 77.1 258.2 297.22 199.83 373.58 571.3"/><polyline class="cls-5" points="88.66 1.84 -32.3 59.79 70.67 274.72 286.44 212.91 367.29 571.08"/><polyline class="cls-5" points="74.74 18.28 -44.45 79.45 64.24 291.24 275.66 226 361 570.86"/><polyline class="cls-5" points="60.82 34.71 -56.6 99.1 57.81 307.75 264.88 239.08 354.72 570.64"/><polyline class="cls-5" points="46.91 51.15 -68.75 118.76 51.38 324.27 254.1 252.16 348.43 570.43"/><polyline class="cls-5" points="32.99 67.58 -80.91 138.41 44.95 340.79 243.32 265.25 342.14 570.21"/><polyline class="cls-5" points="19.07 84.02 -93.06 158.07 38.52 357.31 232.54 278.33 335.85 569.99"/><polyline class="cls-5" points="5.15 100.45 -105.21 177.72 32.08 373.82 221.76 291.42 329.56 569.77"/><polyline class="cls-5" points="-8.76 116.89 -117.36 197.38 25.65 390.34 210.98 304.5 323.28 569.55"/><polyline class="cls-5" points="-22.68 133.32 -129.51 217.03 19.22 406.86 200.2 317.59 316.99 569.34"/><polyline class="cls-5" points="-36.6 149.76 -141.67 236.69 12.79 423.38 189.42 330.67 310.7 569.12"/><polyline class="cls-5" points="-50.52 166.2 -153.82 256.34 6.36 439.9 178.64 343.75 304.41 568.9"/><polyline class="cls-5" points="-64.43 182.63 -165.97 276 -0.07 456.42 167.86 356.84 298.13 568.68"/><polyline class="cls-5" points="-78.35 199.07 -178.12 295.65 -6.5 472.93 157.08 369.92 291.84 568.47"/><polyline class="cls-5" points="-92.27 215.5 -190.28 315.31 -12.94 489.45 146.3 383.01 285.55 568.25"/><polyline class="cls-5" points="-106.19 231.94 -202.43 334.96 -19.37 505.97 135.52 396.09 279.26 568.03"/><polyline class="cls-5" points="-120.1 248.37 -214.58 354.62 -25.8 522.49 124.74 409.18 272.97 567.81"/><polyline class="cls-5" points="-134.02 264.81 -226.73 374.27 -32.23 539 113.96 422.26 266.69 567.6"/><polyline class="cls-5" points="-147.94 281.24 -238.88 393.93 -38.66 555.52 103.18 435.34 260.4 567.38"/><polyline class="cls-5" points="-161.85 297.68 -251.03 413.58 -45.09 572.04 92.4 448.43 254.11 567.16"/><polyline class="cls-5" points="-175.77 314.11 -263.19 433.24 -51.52 588.56 81.62 461.51 247.82 566.94"/><polyline class="cls-5" points="-189.69 330.55 -275.34 452.89 -57.95 605.08 70.84 474.6 241.53 566.72"/><polyline class="cls-5" points="-203.61 346.98 -287.49 472.55 -64.39 621.59 60.06 487.68 235.25 566.51"/><polyline class="cls-5" points="-217.52 363.42 -299.64 492.2 -70.82 638.11 49.28 500.77 228.96 566.29"/><polyline class="cls-5" points="1251.66 396.31 1245.54 243.7 974.37 254.57 986.15 548.37 658.88 561.49"/><polyline class="cls-5" points="1234.68 383.06 1225.41 232.34 954.32 249.91 973.51 539.05 650.68 561.49"/><polyline class="cls-5" points="1217.7 369.81 1205.29 220.99 934.26 245.24 960.87 529.73 642.49 561.49"/><polyline class="cls-5" points="1200.72 356.57 1185.16 209.63 914.21 240.58 948.22 520.41 634.29 561.49"/><polyline class="cls-5" points="1183.74 343.32 1165.04 198.28 894.16 235.91 935.58 511.08 626.09 561.49"/><polyline class="cls-5" points="1166.76 330.07 1144.91 186.92 874.11 231.25 922.94 501.76 617.89 561.49"/><polyline class="cls-5" points="1149.78 316.82 1124.78 175.57 854.06 226.58 910.3 492.44 609.7 561.49"/><polyline class="cls-5" points="1132.8 303.58 1104.66 164.21 834 221.92 897.66 483.12 601.5 561.49"/><polyline class="cls-5" points="1115.82 290.33 1084.53 152.86 813.95 217.25 885.01 473.8 593.3 561.49"/><polyline class="cls-5" points="1098.84 277.08 1064.41 141.5 793.9 212.59 872.37 464.48 585.11 561.49"/><polyline class="cls-5" points="1081.86 263.83 1044.28 130.15 773.85 207.93 859.73 455.15 576.91 561.49"/><polyline class="cls-5" points="1064.88 250.59 1024.15 118.8 753.8 203.26 847.09 445.83 568.71 561.49"/><polyline class="cls-5" points="1047.9 237.34 1004.03 107.44 733.74 198.6 834.45 436.51 560.52 561.49"/><polyline class="cls-5" points="1030.92 224.09 983.9 96.09 713.69 193.93 821.8 427.19 552.32 561.49"/><polyline class="cls-5" points="1013.94 210.84 963.78 84.73 693.64 189.27 809.16 417.87 544.12 561.49"/><polyline class="cls-5" points="996.96 197.59 943.65 73.38 673.59 184.6 796.52 408.55 535.93 561.49"/><polyline class="cls-5" points="979.98 184.35 923.52 62.02 653.53 179.94 783.88 399.22 527.73 561.49"/><polyline class="cls-5" points="963 171.1 903.4 50.67 633.48 175.28 771.24 389.9 519.53 561.49"/><polyline class="cls-5" points="946.02 157.85 883.27 39.31 613.43 170.61 758.6 380.58 511.33 561.49"/><polyline class="cls-5" points="929.04 144.6 863.15 27.96 593.38 165.95 745.95 371.26 503.14 561.49"/><polyline class="cls-5" points="912.06 131.35 843.02 16.6 573.33 161.28 733.31 361.94 494.94 561.49"/><polyline class="cls-5" points="895.09 118.11 822.89 5.25 553.27 156.62 720.67 352.61 486.74 561.49"/><polyline class="cls-5" points="878.11 104.86 802.77 -6.11 533.22 151.95 708.03 343.29 478.55 561.49"/><polyline class="cls-5" points="861.13 91.61 782.64 -17.46 513.17 147.29 695.38 333.97 470.35 561.49"/><polyline class="cls-5" points="844.15 78.36 762.52 -28.82 493.12 142.62 682.74 324.65 462.15 561.49"/><polyline class="cls-5" points="827.17 65.12 742.39 -40.17 473.07 137.96 670.1 315.33 453.96 561.49"/><polyline class="cls-5" points="810.19 51.87 722.27 -51.53 453.01 133.29 657.46 306 445.76 561.49"/><polyline class="cls-5" points="793.21 38.62 702.14 -62.88 432.96 128.63 644.82 296.68 437.56 561.49"/><polyline class="cls-5" points="776.23 25.37 682.01 -74.24 412.91 123.97 632.18 287.36 429.37 561.49"/><polyline class="cls-5" points="759.25 12.13 661.89 -85.59 392.86 119.3 619.53 278.04 421.17 561.49"/><polyline class="cls-5" points="742.27 -1.12 641.76 -96.94 372.81 114.64 606.89 268.72 412.97 561.49"/><polyline class="cls-5" points="725.29 -14.37 621.64 -108.3 352.75 109.97 594.25 259.4 404.77 561.49"/><polyline class="cls-5" points="708.31 -27.62 601.51 -119.66 332.7 105.31 581.61 250.07 396.58 561.49"/><polyline class="cls-5" points="691.33 -40.87 581.38 -131.01 312.65 100.64 568.97 240.75 388.38 561.49"/><polyline class="cls-5" points="674.35 -54.11 561.26 -142.36 292.6 95.98 556.32 231.43 380.18 561.49"/><polyline class="cls-5" points="657.37 -67.36 541.13 -153.72 272.54 91.31 543.68 222.11 371.99 561.49"/><polyline class="cls-5" points="640.39 -80.61 521.01 -165.07 252.49 86.65 531.04 212.79 363.79 561.49"/><polyline class="cls-5" points="623.41 -93.86 500.88 -176.43 232.44 81.99 518.4 203.47 355.59 561.49"/><polyline class="cls-5" points="606.43 -107.1 480.75 -187.78 212.39 77.32 505.76 194.14 347.4 561.49"/><polyline class="cls-5" points="589.45 -120.35 460.63 -199.14 192.34 72.66 493.12 184.82 339.2 561.49"/><polyline class="cls-5" points="572.47 -133.6 440.5 -210.49 172.28 67.99 480.47 175.5 331 561.49"/></g></g></g><g id="BACKGROUND_1" data-name="BACKGROUND 1"><g class="cls-3"><g class="cls-6"><polyline class="cls-5" points="421.88 396.31 415.77 243.7 144.6 254.57 156.38 548.37 -170.89 561.49"/><polyline class="cls-5" points="404.91 383.06 395.64 232.34 124.55 249.91 143.74 539.05 -179.09 561.49"/><polyline class="cls-5" points="387.93 369.81 375.51 220.99 104.49 245.24 131.09 529.73 -187.29 561.49"/><polyline class="cls-5" points="370.95 356.57 355.39 209.63 84.44 240.58 118.45 520.41 -195.48 561.49"/><polyline class="cls-5" points="353.97 343.32 335.26 198.28 64.39 235.91 105.81 511.08 -203.68 561.49"/><polyline class="cls-5" points="336.99 330.07 315.14 186.92 44.34 231.25 93.17 501.76 -211.88 561.49"/><polyline class="cls-5" points="320.01 316.82 295.01 175.57 24.28 226.58 80.53 492.44 -220.07 561.49"/><polyline class="cls-5" points="303.03 303.58 274.88 164.21 4.23 221.92 67.88 483.12 -228.27 561.49"/><polyline class="cls-5" points="286.05 290.33 254.76 152.86 -15.82 217.25 55.24 473.8 -236.47 561.49"/><polyline class="cls-5" points="269.07 277.08 234.63 141.5 -35.87 212.59 42.6 464.48 -244.66 561.49"/><polyline class="cls-5" points="252.09 263.83 214.51 130.15 -55.92 207.93 29.96 455.15 -252.86 561.49"/><polyline class="cls-5" points="235.11 250.59 194.38 118.8 -75.98 203.26 17.32 445.83 -261.06 561.49"/><polyline class="cls-5" points="218.13 237.34 174.26 107.44 -96.03 198.6 4.67 436.51 -269.25 561.49"/><polyline class="cls-5" points="201.15 224.09 154.13 96.09 -116.08 193.93 -7.97 427.19 -277.45 561.49"/><polyline class="cls-5" points="184.17 210.84 134 84.73 -136.13 189.27 -20.61 417.87 -285.65 561.49"/><polyline class="cls-5" points="167.19 197.59 113.88 73.38 -156.19 184.6 -33.25 408.54 -293.85 561.49"/><polyline class="cls-5" points="150.21 184.35 93.75 62.02 -176.24 179.94 -45.89 399.22 -302.04 561.49"/><polyline class="cls-5" points="133.23 171.1 73.63 50.67 -196.29 175.28 -58.53 389.9 -310.24 561.49"/><polyline class="cls-5" points="116.25 157.85 53.5 39.31 -216.34 170.61 -71.18 380.58 -318.44 561.49"/><polyline class="cls-5" points="99.27 144.6 33.37 27.96 -236.39 165.95 -83.82 371.26 -326.63 561.49"/><polyline class="cls-5" points="82.29 131.35 13.25 16.6 -256.45 161.28 -96.46 361.94 -334.83 561.49"/><polyline class="cls-5" points="65.31 118.11 -6.88 5.25 -276.5 156.62 -109.1 352.61 -343.03 561.49"/><polyline class="cls-5" points="48.33 104.86 -27 -6.11 -296.55 151.95 -121.75 343.29 -351.23 561.49"/><polyline class="cls-5" points="31.35 91.61 -47.13 -17.46 -316.6 147.29 -134.39 333.97 -359.42 561.49"/><polyline class="cls-5" points="14.37 78.36 -67.25 -28.82 -336.65 142.62 -147.03 324.65 -367.62 561.49"/></g></g></g></g></svg>