<svg id="Layer_1" data-name="Layer 1" xmlns="http://www.w3.org/2000/svg" viewBox="0 0 202 47"><defs><style>.cls-1{fill:#fff;}</style></defs><title>logo-medriox Wite</title><path class="cls-1" d="M79,14,76.2,14l-2.41,0V33.33l5.16.08c2.22,0,3.74-.69,4.58-2.08s1.26-3.91,1.26-7.59-.42-6.23-1.26-7.63S81.17,14,79,14Z"/><path class="cls-1" d="M192.05,0H10A10,10,0,0,0,0,10v27.1A10,10,0,0,0,10,47h182.1a10,10,0,0,0,9.95-10V10A10,10,0,0,0,192.05,0ZM36.67,37.13l-.9-22.88H35L30.4,32.09a1.93,1.93,0,0,1-2,1.64H24.67a1.93,1.93,0,0,1-2.06-1.64L17.9,14.25h-.66l-.87,22.88H11.64l1-24.89a1.73,1.73,0,0,1,1.91-1.9h5a1.89,1.89,0,0,1,2,1.61l3.8,14.54c.18.68.45,1.9.82,3.64h.58c.28-1.48.56-2.7.82-3.67L31.41,12a1.93,1.93,0,0,1,2-1.61h5a1.71,1.71,0,0,1,1.9,1.9l1.11,24.89ZM62.54,21.25V25h-11v6A2.74,2.74,0,0,0,52,32.71a1.88,1.88,0,0,0,1.49.51H64l.24,3.68q-3.54.32-11.81.31a6.11,6.11,0,0,1-4.22-1.37,4.74,4.74,0,0,1-1.54-3.73V15.33a4.68,4.68,0,0,1,1.56-3.71,6.15,6.15,0,0,1,4.2-1.36q8.27,0,11.81.32L64,14.3H53.47a1.91,1.91,0,0,0-1.49.5,2.71,2.71,0,0,0-.44,1.75v4.7ZM88.83,32a7.39,7.39,0,0,1-3.42,4.22A13.77,13.77,0,0,1,79,37.48q-4.53,0-10-.35V10.34Q74.1,10,79,10a13.64,13.64,0,0,1,6.46,1.27,7.46,7.46,0,0,1,3.42,4.24,25,25,0,0,1,1.08,8.26A25.12,25.12,0,0,1,88.83,32Zm111.17,5a8,8,0,0,1-7.95,8H99V2h93.05A8,8,0,0,1,200,10Z"/><path class="cls-1" d="M117.94,10q5.07,0,7.2,1.69t2.12,6.16a8.25,8.25,0,0,1-1.16,4.78,5.14,5.14,0,0,1-3.86,2v.21A4.24,4.24,0,0,1,124.33,26a6.5,6.5,0,0,1,1.51,2.72l2.4,8.4h-5.18l-2.14-8.32a2.89,2.89,0,0,0-3.09-2.4l-4.84,0V37.13h-4.8V10.34Q111.75,10,117.94,10Zm-5,4v8.43h4.84a5.18,5.18,0,0,0,3.53-.92c.64-.6,1-1.73,1-3.37s-.31-2.73-.95-3.3a5.48,5.48,0,0,0-3.54-.84Z"/><path class="cls-1" d="M137.49,37.13h-4.86V10.34h4.86Z"/><path class="cls-1" d="M153.56,9.84a13.9,13.9,0,0,1,6.55,1.27,7.43,7.43,0,0,1,3.43,4.25,25.28,25.28,0,0,1,1.09,8.38,25.25,25.25,0,0,1-1.09,8.37,7.48,7.48,0,0,1-3.43,4.26,17.45,17.45,0,0,1-13.07,0,7.5,7.5,0,0,1-3.42-4.27,25.62,25.62,0,0,1-1.08-8.36,25.64,25.64,0,0,1,1.08-8.37A7.44,7.44,0,0,1,147,11.11,13.77,13.77,0,0,1,153.56,9.84Zm0,4.15q-3.39,0-4.64,2.08c-.84,1.4-1.26,3.95-1.26,7.67s.42,6.27,1.26,7.66,2.38,2.09,4.64,2.09,3.83-.69,4.67-2.08,1.27-3.94,1.27-7.67-.42-6.3-1.27-7.68S155.83,14,153.56,14Z"/><path class="cls-1" d="M183.21,23.34l7.13,13.79h-5.15l-6-12.12h-.74l-6,12.12h-5.13l7.11-13.79-6.61-13H173l5.47,11.18h.82l5.47-11.18h5.13Z"/></svg>