<svg xmlns="http://www.w3.org/2000/svg" viewBox="0 0 500 500" role="img" aria-label="Medriox">
  <rect width="500" height="500" rx="106" fill="#26BCBC"/>
  <path fill="#FFFFFF" d="M112 104 L180 104 L187 107 L192 112 L196 121 L248 324 L253 324 L255 322 L263 283 L305 123 L311 110 L322 104 L390 104 L397 107 L401 111 L404 119 L405 134 L416 400 L364 400 L355 152 L353 146 L346 146 L344 149 L292 351 L284 360 L274 363 L228 363 L218 360 L211 353 L158 153 L155 146 L148 146 L138 400 L86 400 L97 123 L100 112 L106 106 L111 105 Z"/>
</svg>